<svg width="94" height="16" viewBox="0 0 94 16" fill="none" xmlns="http://www.w3.org/2000/svg">
<path d="M7.28606 3.95668H8.87341C8.82547 2.20952 7.28073 0.941761 5.06482 0.941761C2.87555 0.941761 1.19763 2.19354 1.19763 4.07386C1.19763 5.59197 2.28428 6.48153 4.03677 6.95561L5.32583 7.30717C6.49238 7.61612 7.39259 7.99964 7.39259 8.9691C7.39259 10.0344 6.37519 10.7376 4.97427 10.7376C3.70651 10.7376 2.65182 10.1729 2.55594 8.98509H0.904665C1.0112 10.9613 2.53996 12.1811 4.98492 12.1811C7.54707 12.1811 9.02256 10.8335 9.02256 8.98509C9.02256 7.01953 7.27008 6.25781 5.88513 5.9169L4.81979 5.63991C3.96752 5.42152 2.83293 5.02202 2.83826 3.97798C2.83826 3.05114 3.6852 2.36399 5.02753 2.36399C6.27931 2.36399 7.16887 2.94993 7.28606 3.95668ZM14.5009 3.81818H12.8229V1.85795H11.2303V3.81818H10.0317V5.09659H11.2303V9.92791C11.2249 11.4141 12.3595 12.1332 13.6166 12.1065C14.1227 12.1012 14.4636 12.0053 14.65 11.9361L14.3624 10.6204C14.2558 10.6417 14.0587 10.6896 13.8031 10.6896C13.2864 10.6896 12.8229 10.5192 12.8229 9.59766V5.09659H14.5009V3.81818ZM18.4637 12.1811C19.8167 12.1811 20.5784 11.494 20.882 10.8814H20.9459V12H22.5013V6.56676C22.5013 4.18572 20.6263 3.71165 19.3266 3.71165C17.8458 3.71165 16.4822 4.30824 15.9495 5.79972L17.4463 6.14062C17.6807 5.56001 18.2773 5.00071 19.3479 5.00071C20.376 5.00071 20.9033 5.53871 20.9033 6.46555V6.50284C20.9033 7.08345 20.3067 7.0728 18.8366 7.24325C17.2865 7.42436 15.6991 7.82919 15.6991 9.68821C15.6991 11.2969 16.9083 12.1811 18.4637 12.1811ZM18.8099 10.9027C17.9097 10.9027 17.2599 10.4979 17.2599 9.70952C17.2599 8.85724 18.0163 8.55362 18.9378 8.43111C19.4545 8.36186 20.6796 8.22337 20.9087 7.99432V9.04901C20.9087 10.0185 20.1363 10.9027 18.8099 10.9027ZM24.4427 12H26.0354V7.00355C26.0354 5.93288 26.861 5.16051 27.9903 5.16051C28.3205 5.16051 28.6934 5.2191 28.8213 5.25639V3.73295C28.6614 3.71165 28.3472 3.69567 28.1448 3.69567C27.186 3.69567 26.3656 4.23899 26.0673 5.1179H25.9821V3.81818H24.4427V12ZM34.3222 3.81818H32.6443V1.85795H31.0516V3.81818H29.8531V5.09659H31.0516V9.92791C31.0463 11.4141 32.1808 12.1332 33.438 12.1065C33.944 12.1012 34.2849 12.0053 34.4713 11.9361L34.1837 10.6204C34.0772 10.6417 33.8801 10.6896 33.6244 10.6896C33.1077 10.6896 32.6443 10.5192 32.6443 9.59766V5.09659H34.3222V3.81818ZM42.0748 12.1811C43.4277 12.1811 44.1895 11.494 44.4931 10.8814H44.557V12H46.1124V6.56676C46.1124 4.18572 44.2374 3.71165 42.9377 3.71165C41.4569 3.71165 40.0932 4.30824 39.5605 5.79972L41.0574 6.14062C41.2917 5.56001 41.8883 5.00071 42.959 5.00071C43.987 5.00071 44.5144 5.53871 44.5144 6.46555V6.50284C44.5144 7.08345 43.9178 7.0728 42.4476 7.24325C40.8975 7.42436 39.3102 7.82919 39.3102 9.68821C39.3102 11.2969 40.5194 12.1811 42.0748 12.1811ZM42.421 10.9027C41.5208 10.9027 40.8709 10.4979 40.8709 9.70952C40.8709 8.85724 41.6273 8.55362 42.5488 8.43111C43.0655 8.36186 44.2907 8.22337 44.5197 7.99432V9.04901C44.5197 10.0185 43.7473 10.9027 42.421 10.9027ZM51.4842 15.2386C53.5669 15.2386 55.1756 14.2852 55.1756 12.1811V3.81818H53.6148V5.14453H53.4976C53.2153 4.63849 52.6507 3.71165 51.1273 3.71165C49.1511 3.71165 47.6969 5.27237 47.6969 7.87713C47.6969 10.4872 49.183 11.8775 51.1166 11.8775C52.6187 11.8775 53.1994 11.0305 53.487 10.5085H53.5882V12.1172C53.5882 13.4009 52.7093 13.9549 51.5001 13.9549C50.1738 13.9549 49.6571 13.2891 49.3748 12.8203L48.0058 13.3849C48.4373 14.3864 49.5293 15.2386 51.4842 15.2386ZM51.4682 10.5565C50.0459 10.5565 49.3055 9.46449 49.3055 7.85582C49.3055 6.28445 50.03 5.06463 51.4682 5.06463C52.8584 5.06463 53.6042 6.19922 53.6042 7.85582C53.6042 9.54439 52.8425 10.5565 51.4682 10.5565ZM59.5126 12.1811C60.8656 12.1811 61.6273 11.494 61.9309 10.8814H61.9949V12H63.5502V6.56676C63.5502 4.18572 61.6752 3.71165 60.3755 3.71165C58.8947 3.71165 57.5311 4.30824 56.9984 5.79972L58.4952 6.14062C58.7296 5.56001 59.3262 5.00071 60.3968 5.00071C61.4249 5.00071 61.9522 5.53871 61.9522 6.46555V6.50284C61.9522 7.08345 61.3556 7.0728 59.8855 7.24325C58.3354 7.42436 56.748 7.82919 56.748 9.68821C56.748 11.2969 57.9572 12.1811 59.5126 12.1811ZM59.8588 10.9027C58.9586 10.9027 58.3088 10.4979 58.3088 9.70952C58.3088 8.85724 59.0652 8.55362 59.9867 8.43111C60.5034 8.36186 61.7285 8.22337 61.9576 7.99432V9.04901C61.9576 10.0185 61.1852 10.9027 59.8588 10.9027ZM65.4916 12H67.0843V3.81818H65.4916V12ZM66.2959 2.55575C66.8446 2.55575 67.3027 2.12962 67.3027 1.6076C67.3027 1.08558 66.8446 0.654119 66.2959 0.654119C65.742 0.654119 65.2892 1.08558 65.2892 1.6076C65.2892 2.12962 65.742 2.55575 66.2959 2.55575ZM70.6396 7.14205C70.6396 5.837 71.4386 5.09126 72.5466 5.09126C73.6279 5.09126 74.2831 5.79972 74.2831 6.98757V12H75.8758V6.79581C75.8758 4.77166 74.7625 3.71165 73.0899 3.71165C71.8595 3.71165 71.0551 4.2816 70.6769 5.14986H70.5757V3.81818H69.047V12H70.6396V7.14205ZM88.4184 12.1971L93.3882 7.22727L88.4184 2.25746L87.4596 3.21094L90.7888 6.5348H82.4259V7.91974H90.7888L87.4596 11.2489L88.4184 12.1971Z" fill="white"/>
</svg>
