<svg width="52" height="12" viewBox="0 0 52 12" fill="none" xmlns="http://www.w3.org/2000/svg">
<path d="M5.65259 10.5153L6.6114 9.56179L3.28221 6.23793H11.6451V4.85298H3.28221L6.6114 1.52379L5.65259 0.575638L0.682778 5.54545L5.65259 10.5153ZM18.3217 11H22.5032C25.0387 11 26.1839 9.73757 26.1839 8.06499C26.1839 6.37642 25.0014 5.42294 23.9201 5.36435V5.25781C24.9215 5.00213 25.7578 4.32031 25.7578 2.95668C25.7578 1.34268 24.6392 0.0909088 22.3167 0.0909088H18.3217V11ZM19.9677 9.58842V6.09411H22.402C23.723 6.09411 24.5486 6.94638 24.5486 7.98509C24.5486 8.90128 23.9254 9.58842 22.3434 9.58842H19.9677ZM19.9677 4.81037V1.49183H22.2155C23.5206 1.49183 24.1438 2.17898 24.1438 3.08452C24.1438 4.1392 23.2809 4.81037 22.1729 4.81037H19.9677ZM30.2094 11.1811C31.5623 11.1811 32.3241 10.494 32.6277 9.88139H32.6916V11H34.247V5.56676C34.247 3.18572 32.372 2.71165 31.0723 2.71165C29.5915 2.71165 28.2278 3.30824 27.6952 4.79972L29.192 5.14062C29.4263 4.56001 30.0229 4.00071 31.0936 4.00071C32.1216 4.00071 32.649 4.53871 32.649 5.46555V5.50284C32.649 6.08345 32.0524 6.0728 30.5822 6.24325C29.0322 6.42436 27.4448 6.82919 27.4448 8.68821C27.4448 10.2969 28.654 11.1811 30.2094 11.1811ZM30.5556 9.9027C29.6554 9.9027 29.0055 9.49787 29.0055 8.70952C29.0055 7.85724 29.7619 7.55362 30.6834 7.43111C31.2001 7.36186 32.4253 7.22337 32.6543 6.99432V8.04901C32.6543 9.01847 31.8819 9.9027 30.5556 9.9027ZM39.6347 11.1651C41.5683 11.1651 42.8201 10.0039 42.9959 8.41122H41.4458C41.2434 9.29545 40.5563 9.81747 39.6454 9.81747C38.2977 9.81747 37.4295 8.69354 37.4295 6.90909C37.4295 5.15661 38.3137 4.05398 39.6454 4.05398C40.6575 4.05398 41.2754 4.69318 41.4458 5.46023H42.9959C42.8254 3.80895 41.4778 2.71165 39.6188 2.71165C37.3123 2.71165 35.8208 4.44815 35.8208 6.94638C35.8208 9.41264 37.259 11.1651 39.6347 11.1651ZM44.5191 11H46.1118V8.09695L46.9055 7.30327L49.686 11H51.6409L48.104 6.32848L51.4172 2.81818H49.5102L46.2503 6.28054H46.1118V0.0909088H44.5191V11Z" fill="#4F46E5"/>
</svg>
