<svg width="511" height="17" viewBox="0 0 511 17" fill="none" xmlns="http://www.w3.org/2000/svg">
<path d="M0.340909 13H14.7869L7.56392 0.727272L0.340909 13ZM6.86612 8.42436L6.77557 4.81818H8.35227L8.26172 8.42436H6.86612ZM7.56392 11.6044C7.00994 11.6044 6.55717 11.157 6.55717 10.603C6.55717 10.0437 7.00994 9.59624 7.56392 9.59624C8.1179 9.59624 8.57067 10.0437 8.57067 10.603C8.57067 11.157 8.1179 11.6044 7.56392 11.6044Z" fill="#FF0000"/>
<path d="M21.8961 13H23.558L25.8538 4.82884H25.939L28.2349 13H29.8915L32.9224 2.09091H31.1859L29.0658 10.5444H28.9646L26.754 2.09091H25.0388L22.8283 10.5391H22.727L20.6017 2.09091H18.8705L21.8961 13ZM36.8359 13.1651C38.6204 13.1651 39.8828 12.2862 40.245 10.9545L38.7376 10.6829C38.4499 11.4553 37.7574 11.8494 36.8519 11.8494C35.4883 11.8494 34.5721 10.9652 34.5295 9.38849H40.3462V8.82386C40.3462 5.86754 38.5778 4.71165 36.7241 4.71165C34.4442 4.71165 32.9421 6.44815 32.9421 8.96236C32.9421 11.5032 34.4229 13.1651 36.8359 13.1651ZM34.5348 8.19531C34.5987 7.03409 35.4403 6.02734 36.7347 6.02734C37.9705 6.02734 38.7802 6.94354 38.7855 8.19531H34.5348ZM49.1695 13.1651C51.1031 13.1651 52.3548 12.0039 52.5306 10.4112H50.9805C50.7781 11.2955 50.091 11.8175 49.1801 11.8175C47.8325 11.8175 46.9642 10.6935 46.9642 8.90909C46.9642 7.15661 47.8484 6.05398 49.1801 6.05398C50.1922 6.05398 50.8101 6.69318 50.9805 7.46023H52.5306C52.3602 5.80895 51.0125 4.71165 49.1535 4.71165C46.847 4.71165 45.3555 6.44815 45.3555 8.94638C45.3555 11.4126 46.7938 13.1651 49.1695 13.1651ZM56.4349 13.1811C57.7879 13.1811 58.5496 12.494 58.8532 11.8814H58.9171V13H60.4725V7.56676C60.4725 5.18572 58.5975 4.71165 57.2978 4.71165C55.817 4.71165 54.4533 5.30824 53.9207 6.79972L55.4175 7.14062C55.6518 6.56001 56.2484 6.00071 57.3191 6.00071C58.3472 6.00071 58.8745 6.53871 58.8745 7.46555V7.50284C58.8745 8.08345 58.2779 8.0728 56.8077 8.24325C55.2577 8.42436 53.6703 8.82919 53.6703 10.6882C53.6703 12.2969 54.8795 13.1811 56.4349 13.1811ZM56.7811 11.9027C55.8809 11.9027 55.231 11.4979 55.231 10.7095C55.231 9.85724 55.9874 9.55362 56.9089 9.43111C57.4256 9.36186 58.6508 9.22337 58.8798 8.99432V10.049C58.8798 11.0185 58.1075 11.9027 56.7811 11.9027ZM64.0066 8.14205C64.0066 6.837 64.8056 6.09126 65.9135 6.09126C66.9948 6.09126 67.65 6.79972 67.65 7.98757V13H69.2427V7.79581C69.2427 5.77166 68.1294 4.71165 66.4568 4.71165C65.2264 4.71165 64.422 5.2816 64.0438 6.14986H63.9426V4.81818H62.4139V13H64.0066V8.14205ZM72.7914 8.14205C72.7914 6.837 73.5904 6.09126 74.6984 6.09126C75.7797 6.09126 76.4349 6.79972 76.4349 7.98757V13H78.0275V7.79581C78.0275 5.77166 76.9143 4.71165 75.2417 4.71165C74.0112 4.71165 73.2069 5.2816 72.8287 6.14986H72.7275V4.81818H71.1987V13H72.7914V8.14205ZM83.4299 13.1651C85.7364 13.1651 87.2439 11.4766 87.2439 8.94638C87.2439 6.40021 85.7364 4.71165 83.4299 4.71165C81.1235 4.71165 79.616 6.40021 79.616 8.94638C79.616 11.4766 81.1235 13.1651 83.4299 13.1651ZM83.4353 11.8281C81.9278 11.8281 81.2247 10.5124 81.2247 8.94105C81.2247 7.375 81.9278 6.04332 83.4353 6.04332C84.9321 6.04332 85.6352 7.375 85.6352 8.94105C85.6352 10.5124 84.9321 11.8281 83.4353 11.8281ZM92.6609 4.81818H90.983V2.85795H89.3903V4.81818H88.1918V6.09659H89.3903V10.9279C89.385 12.4141 90.5196 13.1332 91.7767 13.1065C92.2827 13.1012 92.6236 13.0053 92.81 12.9361L92.5224 11.6204C92.4159 11.6417 92.2188 11.6896 91.9631 11.6896C91.4464 11.6896 90.983 11.5192 90.983 10.5977V6.09659H92.6609V4.81818ZM104.163 6.8157C103.833 5.54261 102.837 4.71165 101.069 4.71165C99.2203 4.71165 97.9099 5.68643 97.9099 7.1353C97.9099 8.29652 98.613 9.06889 100.147 9.4098L101.532 9.71342C102.32 9.8892 102.688 10.2408 102.688 10.7521C102.688 11.386 102.011 11.8814 100.967 11.8814C100.014 11.8814 99.4014 11.4712 99.2096 10.6669L97.6702 10.9013C97.9365 12.3501 99.1404 13.1651 100.978 13.1651C102.954 13.1651 104.323 12.1158 104.323 10.6349C104.323 9.47905 103.588 8.76527 102.086 8.41903L100.786 8.12074C99.8861 7.90767 99.4973 7.60405 99.5026 7.05007C99.4973 6.42152 100.179 5.97408 101.085 5.97408C102.075 5.97408 102.533 6.52273 102.72 7.07138L104.163 6.8157ZM109.421 13.1651C111.205 13.1651 112.468 12.2862 112.83 10.9545L111.322 10.6829C111.035 11.4553 110.342 11.8494 109.437 11.8494C108.073 11.8494 107.157 10.9652 107.114 9.38849H112.931V8.82386C112.931 5.86754 111.163 4.71165 109.309 4.71165C107.029 4.71165 105.527 6.44815 105.527 8.96236C105.527 11.5032 107.008 13.1651 109.421 13.1651ZM107.12 8.19531C107.183 7.03409 108.025 6.02734 109.319 6.02734C110.555 6.02734 111.365 6.94354 111.37 8.19531H107.12ZM116.111 8.14205C116.111 6.837 116.91 6.09126 118.018 6.09126C119.099 6.09126 119.754 6.79972 119.754 7.98757V13H121.347V7.79581C121.347 5.77166 120.234 4.71165 118.561 4.71165C117.331 4.71165 116.526 5.2816 116.148 6.14986H116.047V4.81818H114.518V13H116.111V8.14205ZM126.366 13.1598C127.857 13.1598 128.443 12.2489 128.731 11.7269H128.864V13H130.419V2.09091H128.827V6.14453H128.731C128.443 5.63849 127.9 4.71165 126.376 4.71165C124.4 4.71165 122.946 6.27237 122.946 8.92507C122.946 11.5724 124.379 13.1598 126.366 13.1598ZM126.717 11.8015C125.295 11.8015 124.555 10.5497 124.555 8.90909C124.555 7.28445 125.279 6.06463 126.717 6.06463C128.108 6.06463 128.853 7.19922 128.853 8.90909C128.853 10.6296 128.092 11.8015 126.717 11.8015ZM137.309 16.0682C138.625 16.0682 139.456 15.381 139.93 14.092L143.312 4.83416L141.592 4.81818L139.52 11.1676H139.434L137.362 4.81818H135.658L138.651 13.1065L138.454 13.6499C138.05 14.7365 137.48 14.8271 136.606 14.5874L136.222 15.8924C136.414 15.9776 136.83 16.0682 137.309 16.0682ZM147.787 13.1651C150.093 13.1651 151.6 11.4766 151.6 8.94638C151.6 6.40021 150.093 4.71165 147.787 4.71165C145.48 4.71165 143.973 6.40021 143.973 8.94638C143.973 11.4766 145.48 13.1651 147.787 13.1651ZM147.792 11.8281C146.284 11.8281 145.581 10.5124 145.581 8.94105C145.581 7.375 146.284 6.04332 147.792 6.04332C149.289 6.04332 149.992 7.375 149.992 8.94105C149.992 10.5124 149.289 11.8281 147.792 11.8281ZM158.381 9.60689C158.386 10.9972 157.353 11.6577 156.458 11.6577C155.473 11.6577 154.791 10.9439 154.791 9.83061V4.81818H153.198V10.0224C153.198 12.0518 154.311 13.1065 155.883 13.1065C157.113 13.1065 157.95 12.4567 158.328 11.5831H158.413V13H159.979V4.81818H158.381V9.60689ZM169.255 13.1651C171.04 13.1651 172.302 12.2862 172.664 10.9545L171.157 10.6829C170.869 11.4553 170.177 11.8494 169.271 11.8494C167.907 11.8494 166.991 10.9652 166.949 9.38849H172.765V8.82386C172.765 5.86754 170.997 4.71165 169.143 4.71165C166.863 4.71165 165.361 6.44815 165.361 8.96236C165.361 11.5032 166.842 13.1651 169.255 13.1651ZM166.954 8.19531C167.018 7.03409 167.86 6.02734 169.154 6.02734C170.39 6.02734 171.199 6.94354 171.205 8.19531H166.954ZM174.353 13H175.945V7.95561C175.945 6.85298 176.718 6.08594 177.623 6.08594C178.507 6.08594 179.12 6.67188 179.12 7.56143V13H180.707V7.78516C180.707 6.79972 181.309 6.08594 182.348 6.08594C183.19 6.08594 183.882 6.55469 183.882 7.66264V13H185.475V7.51349C185.475 5.64382 184.431 4.71165 182.95 4.71165C181.773 4.71165 180.888 5.27628 180.494 6.14986H180.409C180.052 5.25497 179.301 4.71165 178.209 4.71165C177.128 4.71165 176.323 5.24964 175.983 6.14986H175.881V4.81818H174.353V13ZM189.81 13.1811C191.163 13.1811 191.925 12.494 192.229 11.8814H192.293V13H193.848V7.56676C193.848 5.18572 191.973 4.71165 190.673 4.71165C189.193 4.71165 187.829 5.30824 187.296 6.79972L188.793 7.14062C189.027 6.56001 189.624 6.00071 190.695 6.00071C191.723 6.00071 192.25 6.53871 192.25 7.46555V7.50284C192.25 8.08345 191.653 8.0728 190.183 8.24325C188.633 8.42436 187.046 8.82919 187.046 10.6882C187.046 12.2969 188.255 13.1811 189.81 13.1811ZM190.157 11.9027C189.256 11.9027 188.607 11.4979 188.607 10.7095C188.607 9.85724 189.363 9.55362 190.284 9.43111C190.801 9.36186 192.026 9.22337 192.255 8.99432V10.049C192.255 11.0185 191.483 11.9027 190.157 11.9027ZM195.789 13H197.382V4.81818H195.789V13ZM196.594 3.55575C197.142 3.55575 197.6 3.12962 197.6 2.6076C197.6 2.08558 197.142 1.65412 196.594 1.65412C196.04 1.65412 195.587 2.08558 195.587 2.6076C195.587 3.12962 196.04 3.55575 196.594 3.55575ZM200.937 2.09091H199.345V13H200.937V2.09091ZM206.69 13H208.283V8.00355C208.283 6.93288 209.108 6.16051 210.237 6.16051C210.568 6.16051 210.941 6.2191 211.068 6.25639V4.73295C210.909 4.71165 210.594 4.69567 210.392 4.69567C209.433 4.69567 208.613 5.23899 208.314 6.1179H208.229V4.81818H206.69V13ZM212.267 13H213.859V4.81818H212.267V13ZM213.071 3.55575C213.62 3.55575 214.078 3.12962 214.078 2.6076C214.078 2.08558 213.62 1.65412 213.071 1.65412C212.517 1.65412 212.064 2.08558 212.064 2.6076C212.064 3.12962 212.517 3.55575 213.071 3.55575ZM219.252 16.2386C221.335 16.2386 222.944 15.2852 222.944 13.1811V4.81818H221.383V6.14453H221.266C220.984 5.63849 220.419 4.71165 218.896 4.71165C216.919 4.71165 215.465 6.27237 215.465 8.87713C215.465 11.4872 216.951 12.8775 218.885 12.8775C220.387 12.8775 220.968 12.0305 221.255 11.5085H221.356V13.1172C221.356 14.4009 220.478 14.9549 219.268 14.9549C217.942 14.9549 217.425 14.2891 217.143 13.8203L215.774 14.3849C216.206 15.3864 217.298 16.2386 219.252 16.2386ZM219.236 11.5565C217.814 11.5565 217.074 10.4645 217.074 8.85582C217.074 7.28445 217.798 6.06463 219.236 6.06463C220.627 6.06463 221.372 7.19922 221.372 8.85582C221.372 10.5444 220.611 11.5565 219.236 11.5565ZM226.493 8.14205C226.493 6.837 227.318 6.09126 228.453 6.09126C229.55 6.09126 230.205 6.78906 230.205 7.98757V13H231.798V7.79581C231.798 5.75568 230.679 4.71165 228.996 4.71165C227.723 4.71165 226.956 5.26562 226.572 6.14986H226.471V2.09091H224.9V13H226.493V8.14205ZM237.563 4.81818H235.885V2.85795H234.292V4.81818H233.093V6.09659H234.292V10.9279C234.287 12.4141 235.421 13.1332 236.678 13.1065C237.184 13.1012 237.525 13.0053 237.712 12.9361L237.424 11.6204C237.318 11.6417 237.12 11.6896 236.865 11.6896C236.348 11.6896 235.885 11.5192 235.885 10.5977V6.09659H237.563V4.81818ZM244.527 8.14205C244.527 6.837 245.326 6.09126 246.434 6.09126C247.515 6.09126 248.17 6.79972 248.17 7.98757V13H249.763V7.79581C249.763 5.77166 248.65 4.71165 246.977 4.71165C245.747 4.71165 244.942 5.2816 244.564 6.14986H244.463V4.81818H242.934V13H244.527V8.14205ZM255.165 13.1651C257.472 13.1651 258.979 11.4766 258.979 8.94638C258.979 6.40021 257.472 4.71165 255.165 4.71165C252.859 4.71165 251.351 6.40021 251.351 8.94638C251.351 11.4766 252.859 13.1651 255.165 13.1651ZM255.171 11.8281C253.663 11.8281 252.96 10.5124 252.96 8.94105C252.96 7.375 253.663 6.04332 255.171 6.04332C256.667 6.04332 257.371 7.375 257.371 8.94105C257.371 10.5124 256.667 11.8281 255.171 11.8281ZM262.102 13H263.721L265.383 7.09268H265.506L267.167 13H268.792L271.194 4.81818H269.548L267.956 10.8001H267.876L266.278 4.81818H264.632L263.023 10.8267H262.943L261.34 4.81818H259.694L262.102 13ZM272.462 13.1012C273.043 13.1012 273.527 12.6271 273.527 12.0359C273.527 11.4553 273.043 10.9759 272.462 10.9759C271.876 10.9759 271.397 11.4553 271.397 12.0359C271.397 12.6271 271.876 13.1012 272.462 13.1012ZM286.238 2.09091V9.13281C286.238 10.6136 285.215 11.679 283.553 11.679C281.896 11.679 280.868 10.6136 280.868 9.13281V2.09091H279.222V9.26598C279.222 11.5565 280.938 13.1811 283.553 13.1811C286.168 13.1811 287.889 11.5565 287.889 9.26598V2.09091H286.238ZM296.105 6.8157C295.775 5.54261 294.779 4.71165 293.01 4.71165C291.162 4.71165 289.852 5.68643 289.852 7.1353C289.852 8.29652 290.555 9.06889 292.089 9.4098L293.474 9.71342C294.262 9.8892 294.63 10.2408 294.63 10.7521C294.63 11.386 293.953 11.8814 292.909 11.8814C291.956 11.8814 291.343 11.4712 291.151 10.6669L289.612 10.9013C289.878 12.3501 291.082 13.1651 292.92 13.1651C294.896 13.1651 296.265 12.1158 296.265 10.6349C296.265 9.47905 295.53 8.76527 294.028 8.41903L292.728 8.12074C291.828 7.90767 291.439 7.60405 291.444 7.05007C291.439 6.42152 292.121 5.97408 293.026 5.97408C294.017 5.97408 294.475 6.52273 294.662 7.07138L296.105 6.8157ZM301.362 13.1651C303.147 13.1651 304.409 12.2862 304.772 10.9545L303.264 10.6829C302.976 11.4553 302.284 11.8494 301.378 11.8494C300.015 11.8494 299.099 10.9652 299.056 9.38849H304.873V8.82386C304.873 5.86754 303.104 4.71165 301.251 4.71165C298.971 4.71165 297.469 6.44815 297.469 8.96236C297.469 11.5032 298.949 13.1651 301.362 13.1651ZM299.061 8.19531C299.125 7.03409 299.967 6.02734 301.261 6.02734C302.497 6.02734 303.307 6.94354 303.312 8.19531H299.061ZM312.631 13.1811C313.984 13.1811 314.745 12.494 315.049 11.8814H315.113V13H316.668V7.56676C316.668 5.18572 314.793 4.71165 313.494 4.71165C312.013 4.71165 310.649 5.30824 310.116 6.79972L311.613 7.14062C311.848 6.56001 312.444 6.00071 313.515 6.00071C314.543 6.00071 315.07 6.53871 315.07 7.46555V7.50284C315.07 8.08345 314.474 8.0728 313.004 8.24325C311.453 8.42436 309.866 8.82919 309.866 10.6882C309.866 12.2969 311.075 13.1811 312.631 13.1811ZM312.977 11.9027C312.077 11.9027 311.427 11.4979 311.427 10.7095C311.427 9.85724 312.183 9.55362 313.105 9.43111C313.621 9.36186 314.847 9.22337 315.076 8.99432V10.049C315.076 11.0185 314.303 11.9027 312.977 11.9027ZM320.202 2.09091H318.61V13H320.202V2.09091ZM325.984 4.81818H324.306V2.85795H322.714V4.81818H321.515V6.09659H322.714V10.9279C322.708 12.4141 323.843 13.1332 325.1 13.1065C325.606 13.1012 325.947 13.0053 326.133 12.9361L325.846 11.6204C325.739 11.6417 325.542 11.6896 325.286 11.6896C324.77 11.6896 324.306 11.5192 324.306 10.5977V6.09659H325.984V4.81818ZM331.004 13.1651C332.789 13.1651 334.051 12.2862 334.414 10.9545L332.906 10.6829C332.618 11.4553 331.926 11.8494 331.02 11.8494C329.657 11.8494 328.741 10.9652 328.698 9.38849H334.515V8.82386C334.515 5.86754 332.746 4.71165 330.893 4.71165C328.613 4.71165 327.111 6.44815 327.111 8.96236C327.111 11.5032 328.591 13.1651 331.004 13.1651ZM328.703 8.19531C328.767 7.03409 329.609 6.02734 330.903 6.02734C332.139 6.02734 332.949 6.94354 332.954 8.19531H328.703ZM336.102 13H337.695V8.00355C337.695 6.93288 338.52 6.16051 339.649 6.16051C339.98 6.16051 340.353 6.2191 340.48 6.25639V4.73295C340.321 4.71165 340.006 4.69567 339.804 4.69567C338.845 4.69567 338.025 5.23899 337.727 6.1179H337.641V4.81818H336.102V13ZM343.271 8.14205C343.271 6.837 344.07 6.09126 345.178 6.09126C346.26 6.09126 346.915 6.79972 346.915 7.98757V13H348.508V7.79581C348.508 5.77166 347.394 4.71165 345.722 4.71165C344.491 4.71165 343.687 5.2816 343.309 6.14986H343.207V4.81818H341.679V13H343.271V8.14205ZM352.845 13.1811C354.198 13.1811 354.959 12.494 355.263 11.8814H355.327V13H356.882V7.56676C356.882 5.18572 355.007 4.71165 353.708 4.71165C352.227 4.71165 350.863 5.30824 350.33 6.79972L351.827 7.14062C352.062 6.56001 352.658 6.00071 353.729 6.00071C354.757 6.00071 355.284 6.53871 355.284 7.46555V7.50284C355.284 8.08345 354.688 8.0728 353.217 8.24325C351.667 8.42436 350.08 8.82919 350.08 10.6882C350.08 12.2969 351.289 13.1811 352.845 13.1811ZM353.191 11.9027C352.291 11.9027 351.641 11.4979 351.641 10.7095C351.641 9.85724 352.397 9.55362 353.319 9.43111C353.835 9.36186 355.06 9.22337 355.29 8.99432V10.049C355.29 11.0185 354.517 11.9027 353.191 11.9027ZM362.643 4.81818H360.965V2.85795H359.372V4.81818H358.174V6.09659H359.372V10.9279C359.367 12.4141 360.502 13.1332 361.759 13.1065C362.265 13.1012 362.606 13.0053 362.792 12.9361L362.504 11.6204C362.398 11.6417 362.201 11.6896 361.945 11.6896C361.428 11.6896 360.965 11.5192 360.965 10.5977V6.09659H362.643V4.81818ZM364.225 13H365.817V4.81818H364.225V13ZM365.029 3.55575C365.578 3.55575 366.036 3.12962 366.036 2.6076C366.036 2.08558 365.578 1.65412 365.029 1.65412C364.475 1.65412 364.022 2.08558 364.022 2.6076C364.022 3.12962 364.475 3.55575 365.029 3.55575ZM374.779 4.81818H373.069L371.003 11.1143H370.917L368.845 4.81818H367.135L370.108 13H371.812L374.779 4.81818ZM379.329 13.1651C381.114 13.1651 382.376 12.2862 382.738 10.9545L381.231 10.6829C380.943 11.4553 380.251 11.8494 379.345 11.8494C377.982 11.8494 377.066 10.9652 377.023 9.38849H382.84V8.82386C382.84 5.86754 381.071 4.71165 379.218 4.71165C376.938 4.71165 375.436 6.44815 375.436 8.96236C375.436 11.5032 376.916 13.1651 379.329 13.1651ZM377.028 8.19531C377.092 7.03409 377.934 6.02734 379.228 6.02734C380.464 6.02734 381.274 6.94354 381.279 8.19531H377.028ZM389.99 13H391.61L393.272 7.09268H393.394L395.056 13H396.681L399.083 4.81818H397.437L395.844 10.8001H395.765L394.167 4.81818H392.521L390.912 10.8267H390.832L389.229 4.81818H387.583L389.99 13ZM402.796 13.1811C404.149 13.1811 404.91 12.494 405.214 11.8814H405.278V13H406.833V7.56676C406.833 5.18572 404.958 4.71165 403.658 4.71165C402.178 4.71165 400.814 5.30824 400.281 6.79972L401.778 7.14062C402.013 6.56001 402.609 6.00071 403.68 6.00071C404.708 6.00071 405.235 6.53871 405.235 7.46555V7.50284C405.235 8.08345 404.639 8.0728 403.168 8.24325C401.618 8.42436 400.031 8.82919 400.031 10.6882C400.031 12.2969 401.24 13.1811 402.796 13.1811ZM403.142 11.9027C402.242 11.9027 401.592 11.4979 401.592 10.7095C401.592 9.85724 402.348 9.55362 403.27 9.43111C403.786 9.36186 405.011 9.22337 405.241 8.99432V10.049C405.241 11.0185 404.468 11.9027 403.142 11.9027ZM409.488 16.0682C410.804 16.0682 411.635 15.381 412.109 14.092L415.491 4.83416L413.771 4.81818L411.699 11.1676H411.614L409.542 4.81818H407.837L410.831 13.1065L410.634 13.6499C410.229 14.7365 409.659 14.8271 408.785 14.5874L408.402 15.8924C408.593 15.9776 409.009 16.0682 409.488 16.0682ZM424.421 4.81818H422.743V2.85795H421.151V4.81818H419.952V6.09659H421.151V10.9279C421.145 12.4141 422.28 13.1332 423.537 13.1065C424.043 13.1012 424.384 13.0053 424.57 12.9361L424.283 11.6204C424.176 11.6417 423.979 11.6896 423.723 11.6896C423.207 11.6896 422.743 11.5192 422.743 10.5977V6.09659H424.421V4.81818ZM429.362 13.1651C431.668 13.1651 433.176 11.4766 433.176 8.94638C433.176 6.40021 431.668 4.71165 429.362 4.71165C427.055 4.71165 425.548 6.40021 425.548 8.94638C425.548 11.4766 427.055 13.1651 429.362 13.1651ZM429.367 11.8281C427.859 11.8281 427.156 10.5124 427.156 8.94105C427.156 7.375 427.859 6.04332 429.367 6.04332C430.864 6.04332 431.567 7.375 431.567 8.94105C431.567 10.5124 430.864 11.8281 429.367 11.8281ZM442.009 13.1651C443.943 13.1651 445.195 12.0039 445.371 10.4112H443.82C443.618 11.2955 442.931 11.8175 442.02 11.8175C440.672 11.8175 439.804 10.6935 439.804 8.90909C439.804 7.15661 440.688 6.05398 442.02 6.05398C443.032 6.05398 443.65 6.69318 443.82 7.46023H445.371C445.2 5.80895 443.852 4.71165 441.993 4.71165C439.687 4.71165 438.195 6.44815 438.195 8.94638C438.195 11.4126 439.634 13.1651 442.009 13.1651ZM450.34 13.1651C452.647 13.1651 454.154 11.4766 454.154 8.94638C454.154 6.40021 452.647 4.71165 450.34 4.71165C448.034 4.71165 446.526 6.40021 446.526 8.94638C446.526 11.4766 448.034 13.1651 450.34 13.1651ZM450.345 11.8281C448.838 11.8281 448.135 10.5124 448.135 8.94105C448.135 7.375 448.838 6.04332 450.345 6.04332C451.842 6.04332 452.545 7.375 452.545 8.94105C452.545 10.5124 451.842 11.8281 450.345 11.8281ZM457.345 8.14205C457.345 6.837 458.144 6.09126 459.251 6.09126C460.333 6.09126 460.988 6.79972 460.988 7.98757V13H462.581V7.79581C462.581 5.77166 461.467 4.71165 459.795 4.71165C458.564 4.71165 457.76 5.2816 457.382 6.14986H457.281V4.81818H455.752V13H457.345V8.14205ZM468.356 4.81818H466.678V2.85795H465.085V4.81818H463.887V6.09659H465.085V10.9279C465.08 12.4141 466.215 13.1332 467.472 13.1065C467.978 13.1012 468.319 13.0053 468.505 12.9361L468.217 11.6204C468.111 11.6417 467.914 11.6896 467.658 11.6896C467.141 11.6896 466.678 11.5192 466.678 10.5977V6.09659H468.356V4.81818ZM472.319 13.1811C473.672 13.1811 474.433 12.494 474.737 11.8814H474.801V13H476.356V7.56676C476.356 5.18572 474.481 4.71165 473.182 4.71165C471.701 4.71165 470.337 5.30824 469.805 6.79972L471.301 7.14062C471.536 6.56001 472.132 6.00071 473.203 6.00071C474.231 6.00071 474.758 6.53871 474.758 7.46555V7.50284C474.758 8.08345 474.162 8.0728 472.692 8.24325C471.142 8.42436 469.554 8.82919 469.554 10.6882C469.554 12.2969 470.763 13.1811 472.319 13.1811ZM472.665 11.9027C471.765 11.9027 471.115 11.4979 471.115 10.7095C471.115 9.85724 471.871 9.55362 472.793 9.43111C473.31 9.36186 474.535 9.22337 474.764 8.99432V10.049C474.764 11.0185 473.991 11.9027 472.665 11.9027ZM481.744 13.1651C483.678 13.1651 484.93 12.0039 485.105 10.4112H483.555C483.353 11.2955 482.666 11.8175 481.755 11.8175C480.407 11.8175 479.539 10.6935 479.539 8.90909C479.539 7.15661 480.423 6.05398 481.755 6.05398C482.767 6.05398 483.385 6.69318 483.555 7.46023H485.105C484.935 5.80895 483.587 4.71165 481.728 4.71165C479.422 4.71165 477.93 6.44815 477.93 8.94638C477.93 11.4126 479.368 13.1651 481.744 13.1651ZM490.448 4.81818H488.77V2.85795H487.177V4.81818H485.979V6.09659H487.177V10.9279C487.172 12.4141 488.306 13.1332 489.564 13.1065C490.07 13.1012 490.41 13.0053 490.597 12.9361L490.309 11.6204C490.203 11.6417 490.006 11.6896 489.75 11.6896C489.233 11.6896 488.77 11.5192 488.77 10.5977V6.09659H490.448V4.81818ZM501.002 9.60689C501.008 10.9972 499.974 11.6577 499.079 11.6577C498.094 11.6577 497.412 10.9439 497.412 9.83061V4.81818H495.819V10.0224C495.819 12.0518 496.933 13.1065 498.504 13.1065C499.734 13.1065 500.571 12.4567 500.949 11.5831H501.034V13H502.6V4.81818H501.002V9.60689ZM510.691 6.8157C510.361 5.54261 509.365 4.71165 507.596 4.71165C505.748 4.71165 504.438 5.68643 504.438 7.1353C504.438 8.29652 505.141 9.06889 506.675 9.4098L508.06 9.71342C508.848 9.8892 509.216 10.2408 509.216 10.7521C509.216 11.386 508.539 11.8814 507.495 11.8814C506.542 11.8814 505.929 11.4712 505.737 10.6669L504.198 10.9013C504.464 12.3501 505.668 13.1651 507.506 13.1651C509.482 13.1651 510.851 12.1158 510.851 10.6349C510.851 9.47905 510.116 8.76527 508.614 8.41903L507.314 8.12074C506.414 7.90767 506.025 7.60405 506.03 7.05007C506.025 6.42152 506.707 5.97408 507.612 5.97408C508.603 5.97408 509.061 6.52273 509.248 7.07138L510.691 6.8157Z" fill="#4B5563"/>
</svg>
